<mxfile host="app.diagrams.net" modified="2023-09-22T08:46:07.671Z" agent="Mozilla/5.0 (X11; Linux x86_64) AppleWebKit/537.36 (KHTML, like Gecko) Chrome/116.0.0.0 Safari/537.36" version="21.8.0" etag="jMOx_eFDTSCWG4REwmA8" type="github">
  <diagram name="Page-1" id="fY2II0-iikvKv0iLKrjh">
    <mxGraphModel>
      <root>
        <mxCell id="0" />
        <mxCell id="1" parent="0" />
      </root>
    </mxGraphModel>
  </diagram>
</mxfile>
